<svg width="89" height="52" viewBox="0 0 89 52" fill="none" xmlns="http://www.w3.org/2000/svg">
 <g clip-path="url(#clip0)">
  <path
   d="M0 2C0 0.895432 0.89543 0 2 0H86.5361C87.6407 0 88.5361 0.895431 88.5361 2V49.2236C88.5361 50.3282 87.6407 51.2236 86.5361 51.2236H2C0.895429 51.2236 0 50.3282 0 49.2236V2Z"
   fill="#DA6C49" />
  <path
   d="M10.1992 29.7515V7.35156H18.0392L21.9112 26.8715H22.4872L26.3592 7.35156H34.1992V29.7515H30.1032V10.4555H29.5272L25.6872 29.7515H18.7112L14.8712 10.4555H14.2952V29.7515H10.1992Z"
   fill="#FAFAF8" />
  <path
   d="M45.3306 30.1983C42.5572 30.1983 40.3599 29.4303 38.7386 27.8943C37.1172 26.337 36.3066 24.1183 36.3066 21.2383V15.8623C36.3066 12.9823 37.1172 10.7743 38.7386 9.23834C40.3599 7.68101 42.5572 6.90234 45.3306 6.90234C48.0826 6.90234 50.2052 7.65968 51.6986 9.17435C53.2132 10.6677 53.9706 12.7263 53.9706 15.3503V15.5423H49.8106V15.2223C49.8106 13.8997 49.4372 12.8117 48.6906 11.9583C47.9652 11.105 46.8452 10.6783 45.3306 10.6783C43.8372 10.6783 42.6639 11.137 41.8106 12.0543C40.9572 12.9717 40.5306 14.2197 40.5306 15.7983V21.3023C40.5306 22.8597 40.9572 24.1077 41.8106 25.0463C42.6639 25.9637 43.8372 26.4223 45.3306 26.4223C46.8452 26.4223 47.9652 25.9957 48.6906 25.1423C49.4372 24.2677 49.8106 23.1797 49.8106 21.8783V21.3023H53.9706V21.7503C53.9706 24.3743 53.2132 26.4437 51.6986 27.9583C50.2052 29.4517 48.0826 30.1983 45.3306 30.1983Z"
   fill="#FAFAF8" />
  <path
   d="M55.8125 29.7515V7.35156H65.0285C66.4365 7.35156 67.6738 7.63956 68.7405 8.21556C69.8285 8.77023 70.6712 9.55956 71.2685 10.5835C71.8872 11.6075 72.1965 12.8235 72.1965 14.2315V14.6795C72.1965 16.0662 71.8765 17.2822 71.2365 18.3275C70.6179 19.3515 69.7645 20.1515 68.6765 20.7275C67.6099 21.2822 66.3939 21.5595 65.0285 21.5595H60.0365V29.7515H55.8125ZM60.0365 17.7195H64.6125C65.6152 17.7195 66.4258 17.4422 67.0445 16.8875C67.6632 16.3329 67.9725 15.5755 67.9725 14.6155V14.2955C67.9725 13.3355 67.6632 12.5782 67.0445 12.0235C66.4258 11.4689 65.6152 11.1915 64.6125 11.1915H60.0365V17.7195Z"
   fill="#FAFAF8" />
  <path fill-rule="evenodd" clip-rule="evenodd"
   d="M73.8766 11.3183C74.3886 11.7877 75.0073 12.0223 75.7326 12.0223C76.4793 12.0223 77.0979 11.7877 77.5886 11.3183C78.0793 10.849 78.3246 10.2303 78.3246 9.46235C78.3246 8.69434 78.0793 8.07568 77.5886 7.60634C77.0979 7.13701 76.4793 6.90234 75.7326 6.90234C75.0073 6.90234 74.3886 7.13701 73.8766 7.60634C73.386 8.07568 73.1406 8.69434 73.1406 9.46235C73.1406 10.2303 73.386 10.849 73.8766 11.3183Z"
   fill="#FAFAF8" />
  <path
   d="M72.4111 32.6923L72.8208 32.6949C73.4182 32.6949 73.7168 32.3749 73.7168 31.7349V13.8789H77.7488V32.5669C77.7488 33.6549 77.4288 34.5189 76.7888 35.1589C76.1488 35.8203 75.2955 36.1509 74.2288 36.1509L72.4111 36.1533H10.2031V32.6923H72.4111Z"
   fill="#FAFAF8" />
  <path
   d="M10.2441 44.325V38.946H11.0911V39.606H11.2451C11.3405 39.3713 11.4871 39.199 11.6851 39.089C11.8831 38.979 12.1435 38.924 12.4661 38.924H13.1041V39.716H12.4111C12.0225 39.716 11.7071 39.826 11.4651 40.046C11.2305 40.2587 11.1131 40.5923 11.1131 41.047V44.325H10.2441Z"
   fill="#FAFAF8" />
  <path
   d="M16.6613 44.479C16.1186 44.479 15.6419 44.3653 15.2313 44.138C14.8206 43.9033 14.5016 43.577 14.2743 43.159C14.0469 42.741 13.9333 42.257 13.9333 41.707V41.575C13.9333 41.0177 14.0469 40.53 14.2743 40.112C14.5016 39.694 14.8169 39.3713 15.2203 39.144C15.6236 38.9093 16.0856 38.792 16.6063 38.792C17.1123 38.792 17.5596 38.902 17.9483 39.122C18.3369 39.3347 18.6413 39.6427 18.8613 40.046C19.0813 40.4493 19.1913 40.9223 19.1913 41.465V41.861H14.8023C14.8243 42.4403 15.0113 42.895 15.3633 43.225C15.7153 43.5477 16.1553 43.709 16.6833 43.709C17.1453 43.709 17.5009 43.6027 17.7503 43.39C17.9996 43.1773 18.1903 42.9243 18.3223 42.631L19.0703 42.994C18.9603 43.2213 18.8063 43.4487 18.6083 43.676C18.4176 43.9033 18.1646 44.094 17.8493 44.248C17.5413 44.402 17.1453 44.479 16.6613 44.479ZM14.8133 41.146H18.3113C18.2819 40.6473 18.1096 40.2587 17.7943 39.98C17.4863 39.7013 17.0903 39.562 16.6063 39.562C16.1149 39.562 15.7116 39.7013 15.3963 39.98C15.0809 40.2587 14.8866 40.6473 14.8133 41.146Z"
   fill="#FAFAF8" />
  <path
   d="M22.984 44.479C22.522 44.479 22.0967 44.369 21.708 44.149C21.3194 43.929 21.0114 43.61 20.784 43.192C20.5567 42.774 20.443 42.279 20.443 41.707V41.564C20.443 40.992 20.5567 40.5007 20.784 40.09C21.0114 39.672 21.3157 39.353 21.697 39.133C22.0857 38.9057 22.5147 38.792 22.984 38.792C23.358 38.792 23.6734 38.8433 23.93 38.946C24.194 39.0413 24.4067 39.166 24.568 39.32C24.7294 39.4667 24.854 39.6243 24.942 39.793H25.096V36.625H25.965V44.325H25.118V43.434H24.964C24.8174 43.7053 24.59 43.9473 24.282 44.16C23.974 44.3727 23.5414 44.479 22.984 44.479ZM23.215 43.709C23.7724 43.709 24.2234 43.533 24.568 43.181C24.92 42.8217 25.096 42.323 25.096 41.685V41.586C25.096 40.948 24.92 40.453 24.568 40.101C24.2234 39.7417 23.7724 39.562 23.215 39.562C22.665 39.562 22.2104 39.7417 21.851 40.101C21.499 40.453 21.323 40.948 21.323 41.586V41.685C21.323 42.323 21.499 42.8217 21.851 43.181C22.2104 43.533 22.665 43.709 23.215 43.709Z"
   fill="#FAFAF8" />
  <path
   d="M29.7661 44.325C29.4581 44.325 29.2198 44.2407 29.0511 44.072C28.8898 43.9033 28.8091 43.6723 28.8091 43.379V39.705H27.1921V38.946H28.8091V37.032H29.6781V38.946H31.4381V39.705H29.6781V43.247C29.6781 43.467 29.7845 43.577 29.9971 43.577H31.1961V44.325H29.7661Z"
   fill="#FAFAF8" />
  <path
   d="M32.8457 44.325V38.946H33.6927V39.606H33.8467C33.942 39.3713 34.0887 39.199 34.2867 39.089C34.4847 38.979 34.745 38.924 35.0677 38.924H35.7057V39.716H35.0127C34.624 39.716 34.3087 39.826 34.0667 40.046C33.832 40.2587 33.7147 40.5923 33.7147 41.047V44.325H32.8457Z"
   fill="#FAFAF8" />
  <path
   d="M38.4596 44.479C38.0856 44.479 37.7446 44.413 37.4366 44.281C37.1286 44.149 36.8866 43.9583 36.7106 43.709C36.5346 43.4597 36.4466 43.1553 36.4466 42.796C36.4466 42.4293 36.5346 42.1287 36.7106 41.894C36.8866 41.652 37.1286 41.4723 37.4366 41.355C37.7446 41.2303 38.0892 41.168 38.4706 41.168H40.2856V40.772C40.2856 40.3907 40.1719 40.09 39.9446 39.87C39.7246 39.65 39.3946 39.54 38.9546 39.54C38.5219 39.54 38.1846 39.6463 37.9426 39.859C37.7006 40.0643 37.5356 40.343 37.4476 40.695L36.6336 40.431C36.7216 40.1303 36.8609 39.859 37.0516 39.617C37.2422 39.3677 37.4952 39.1697 37.8106 39.023C38.1332 38.869 38.5182 38.792 38.9656 38.792C39.6549 38.792 40.1902 38.9717 40.5716 39.331C40.9529 39.683 41.1436 40.1817 41.1436 40.827V43.258C41.1436 43.478 41.2462 43.588 41.4516 43.588H41.9466V44.325H41.1876C40.9456 44.325 40.7512 44.259 40.6046 44.127C40.4579 43.9877 40.3846 43.8043 40.3846 43.577V43.522H40.2526C40.1719 43.6613 40.0619 43.808 39.9226 43.962C39.7906 44.1087 39.6072 44.2297 39.3726 44.325C39.1379 44.4277 38.8336 44.479 38.4596 44.479ZM38.5586 43.731C39.0719 43.731 39.4862 43.5807 39.8016 43.28C40.1242 42.972 40.2856 42.543 40.2856 41.993V41.872H38.5036C38.1589 41.872 37.8729 41.949 37.6456 42.103C37.4256 42.2497 37.3156 42.4733 37.3156 42.774C37.3156 43.0747 37.4292 43.3093 37.6566 43.478C37.8912 43.6467 38.1919 43.731 38.5586 43.731Z"
   fill="#FAFAF8" />
  <path
   d="M45.4613 44.479C44.9407 44.479 44.4713 44.369 44.0533 44.149C43.6427 43.9217 43.3163 43.599 43.0743 43.181C42.8397 42.763 42.7223 42.268 42.7223 41.696V41.575C42.7223 40.9957 42.8397 40.5007 43.0743 40.09C43.3163 39.672 43.6427 39.353 44.0533 39.133C44.4713 38.9057 44.9407 38.792 45.4613 38.792C45.9747 38.792 46.411 38.8873 46.7703 39.078C47.137 39.2687 47.423 39.5217 47.6283 39.837C47.841 40.1523 47.9767 40.4897 48.0353 40.849L47.1883 41.025C47.1517 40.761 47.0637 40.519 46.9243 40.299C46.7923 40.079 46.6053 39.903 46.3633 39.771C46.1213 39.639 45.8243 39.573 45.4723 39.573C45.113 39.573 44.7903 39.6537 44.5043 39.815C44.2257 39.9763 44.002 40.2073 43.8333 40.508C43.672 40.8087 43.5913 41.168 43.5913 41.586V41.685C43.5913 42.103 43.672 42.4623 43.8333 42.763C44.002 43.0637 44.2257 43.2947 44.5043 43.456C44.7903 43.6173 45.113 43.698 45.4723 43.698C46.0077 43.698 46.4147 43.5587 46.6933 43.28C46.9793 43.0013 47.1553 42.6567 47.2213 42.246L48.0793 42.433C47.9987 42.785 47.852 43.1187 47.6393 43.434C47.4267 43.7493 47.137 44.0023 46.7703 44.193C46.411 44.3837 45.9747 44.479 45.4613 44.479Z"
   fill="#FAFAF8" />
  <path
   d="M49.5605 44.325V36.625H50.4295V41.157H50.5835L53.0475 38.946H54.2575L51.2765 41.564L54.3455 44.325H53.1465L50.5835 41.982H50.4295V44.325H49.5605Z"
   fill="#FAFAF8" />
 </g>
 <defs>
  <clipPath id="clip0">
   <rect width="89" height="52" fill="white" />
  </clipPath>
 </defs>
</svg>